<svg xmlns="http://www.w3.org/2000/svg" width="165" height="65.889" viewBox="0 0 165 65.889">
  <g id="Groupe_209" data-name="Groupe 209" transform="translate(-1796.297 -1570.386)">
    <path id="Tracé_115" data-name="Tracé 115" d="M1823.922,1592.477a.3.3,0,0,1,.34.262c.147.642.3,1.283.435,1.927.191.9.4,1.8.542,2.713a2.531,2.531,0,0,1,.087,1.075,11.256,11.256,0,0,1-.731,2.015c-.018.28.2.17.316.171,2.859.007,11.517.008,12.987,0,.1,0,.267.1.319-.1a6.057,6.057,0,0,1-1.281-2.358c-.637-2.171-1-4.406-1.492-6.612-.463-2.094-.872-4.2-1.311-6.3-.487-2.328-.987-4.654-1.472-6.983-.526-2.523-1.051-5.047-1.549-7.576-.057-.291-.159-.325-.4-.324q-7.267.008-14.534,0c-.106,0-.213.011-.416.023a12.752,12.752,0,0,1,1.581.889c.49.32.528.473.241.92q-1.251,1.945-2.506,3.889-1.735,2.671-3.482,5.334c-1.012,1.543-2.032,3.08-3.048,4.62q-1.3,1.977-2.606,3.956c-1.112,1.684-2.216,3.374-3.343,5.048a29.48,29.48,0,0,1-1.94,2.724q-1.2,1.412-2.5,2.747c.053.2.215.1.32.1q3.464.01,6.927,0c.1,0,.215.037.306-.045a1.183,1.183,0,0,1-.074-.538,2.471,2.471,0,0,1,0-.837.73.73,0,0,1,.177-.523q1.973-3.01,3.955-6.014a.4.4,0,0,1,.372-.208Q1817.032,1592.486,1823.922,1592.477Zm-3.081-16.172c.135.665.256,1.249.374,1.834q.952,4.7,1.909,9.406c.048.235.027.3-.229.3q-4.72-.012-9.438-.006c-.055,0-.111-.006-.242-.014Z" transform="translate(-1.438)" fill="#0a1469"/>
    <path id="Tracé_116" data-name="Tracé 116" d="M2214.8,1626.768c.178-.146.4-.458.532-.384.214.118-.19,1.456.021,1.674.13-.005.261-.014.391-.014q4.542,0,9.084-.007c.1,0,.362.139.269-.184a6.182,6.182,0,0,1,.058-3.473c.708-2.52,1.346-5.061,2.01-7.593s1.329-5.093,2-7.638c.28-1.063.574-2.122.862-3.183-.059-.195-.221-.1-.329-.1q-5.534-.01-11.067-.005a.923.923,0,0,0-.248.009c-.083.024-.1.09-.058.168a4.506,4.506,0,0,1,.214,2.419c-.177.821-.363,1.641-.55,2.46-.289,1.264-.592,2.525-.892,3.787-.4,1.679-.828,3.352-1.264,5.023a8.781,8.781,0,0,1-1.409,3.41,1.572,1.572,0,0,1-1.2.741c-1.152.007-3.57-.042-4.051-.083a1.083,1.083,0,0,1-.782-.342,1.717,1.717,0,0,1-.37-1.722c.5-2.17,1.065-4.325,1.608-6.485q.82-3.264,1.644-6.527c.233-.92.481-1.836.722-2.754-.075-.2-.247-.1-.366-.1q-5.386-.011-10.772,0a.636.636,0,0,0-.348.034,1.384,1.384,0,0,0,.041.273,4.5,4.5,0,0,1,.1,2.3c-.189,1.165-.485,2.31-.769,3.456-.214.865-.424,1.73-.653,2.591q-.6,2.269-1.164,4.549a12.514,12.514,0,0,0-.64,3.012,1.476,1.476,0,0,0,0,.567,6.359,6.359,0,0,0,.884,3.207,4.363,4.363,0,0,0,2.016,1.728,5.653,5.653,0,0,0,2.031.425s9.345.05,10.118,0A5.174,5.174,0,0,0,2214.8,1626.768Z" transform="translate(-309.766 -27.381)" fill="#0a1469"/>
    <path id="Tracé_117" data-name="Tracé 117" d="M2348.988,1610.353a1.494,1.494,0,0,1,.926-.272c.9-.047,7.513.005,9.867.02.122.025.818.064.927.07.283.061,1.872.277,2.4.365.5.083.991.175,1.487.261.176.031.228-.032.256-.222.043-.306.04-.612.073-.917.05-.907.015-1.814.019-2.721a4.321,4.321,0,0,0-.031-.984h0a.788.788,0,0,0-.385-.032c-6.418,0-19.515-.021-19.642.021a10.746,10.746,0,0,0-3.531.809,4.254,4.254,0,0,0-2.033,1.755,17.9,17.9,0,0,0-.832,1.856,30.235,30.235,0,0,0-1.113,3.353,17.116,17.116,0,0,0-.39,1.838,11.4,11.4,0,0,0-.007,1.487,16.836,16.836,0,0,0,.428,2.057,3.229,3.229,0,0,0,1.779,1.835,5.536,5.536,0,0,0,1.636.361s.259.021.388.021q4.358,0,8.717,0a4.7,4.7,0,0,1,.472.053,1.365,1.365,0,0,1,.969.578,1.313,1.313,0,0,1-.041,1.3,1.144,1.144,0,0,1-1.042.607c-2.158-.005-12.133-.191-12.416-.212a16.6,16.6,0,0,1-2.54-.305c-.168-.073-.192.025-.209.162-.031.157-.064.314-.093.471-.113.63-.236,1.259-.332,1.891l-.23,1.782c-.081.455-.1.462.342.462h18.779a7.992,7.992,0,0,0,1.2-.04,10.247,10.247,0,0,0,3.871-1.076,4.789,4.789,0,0,0,2.338-2.495,36.1,36.1,0,0,0,1.206-3.63,36.969,36.969,0,0,0,.8-3.72l.053-.381a4.44,4.44,0,0,0-3.7-4.548,1.247,1.247,0,0,0-.389-.021c-2.909,0-8.988.024-9.114-.031a1.241,1.241,0,0,1-.789-.234A.921.921,0,0,1,2348.988,1610.353Z" transform="translate(-415.587 -27.437)" fill="#0a1469"/>
    <path id="Tracé_118" data-name="Tracé 118" d="M1977.174,1600.649q5.809.007,11.617,0c.093,0,.217.064.281-.071h0l-.052-.387a10.258,10.258,0,0,1,.03-3.327c.254-.973.5-1.949.743-2.925q1.436-5.743,2.87-11.485c.971-3.893,1.932-7.789,2.914-11.679.085-.335.029-.386-.3-.385-3.443.011-6.887.007-10.33.007-.544,0-.544,0-.565.537a16.425,16.425,0,0,1-.488,4.031c-.3,1.414-.651,2.815-.989,4.22-.314,1.3-.627,2.607-.947,3.909-.416,1.691-.85,3.378-1.255,5.071-.336,1.4-.706,2.8-1.063,4.2-.3,1.166-.55,2.347-.945,3.481-.552,1.584-1.2,3.136-1.8,4.7C1976.926,1600.738,1977.078,1600.649,1977.174,1600.649Z" transform="translate(-139.469 -0.005)" fill="#0a1469"/>
    <path id="Tracé_119" data-name="Tracé 119" d="M2044.463,1597.759c-.427.935-.867,1.864-1.3,2.8.081.192.25.1.373.1q5.388.009,10.776,0a.561.561,0,0,0,.346-.038l.574-1.9a4.394,4.394,0,0,0,.914.967,4.835,4.835,0,0,0,2.863.954.64.64,0,0,0,.246.021h7.56a.589.589,0,0,0,.245-.023,6.622,6.622,0,0,0,2.6-.808,10.645,10.645,0,0,0,4.033-4.213c.656-1.175,2.315-8.357,2.791-10.672a6.421,6.421,0,0,0,0-1.208,5.787,5.787,0,0,0-2.5-4.078,6.818,6.818,0,0,0-2.715-1.067l-.387-.052-7.429-.072-.378.053a9.827,9.827,0,0,0-2.044.711c-.2.095-.413.26-.672.171-.115-.089-.1-.319.022-.787.481-2.3,1.057-4.585,1.673-6.857.12-.442.222-.888.337-1.352H2051.04c-.024,0-.048,0-.071,0-.147-.007-.185.051-.137.193a3.61,3.61,0,0,1,.127.848,8.073,8.073,0,0,1,0,1.542,5.839,5.839,0,0,1-.074.685c-.179.8-.369,1.592-.565,2.386q-.586,2.381-1.184,4.758c-.437,1.728-3.243,12.609-3.588,13.774A23.844,23.844,0,0,1,2044.463,1597.759Zm11.863-3.084a13.6,13.6,0,0,1,.4-1.694q1.093-4.2,2.194-8.393a2.727,2.727,0,0,1,1.167-1.6,1.786,1.786,0,0,1,1.039-.313c1.081.006,2.162,0,3.243,0a1.588,1.588,0,0,1,1.723,1.969,20.183,20.183,0,0,1-.534,2.321q-.912,3.62-1.846,7.234a4.547,4.547,0,0,1-.52,1.242,1.941,1.941,0,0,1-1.794,1.018c-.57-.011,0-.011-.57-.011l-3.1-.019A1.385,1.385,0,0,1,2056.325,1594.675Z" transform="translate(-190.651 -0.012)" fill="#0a1469"/>
    <path id="Tracé_120" data-name="Tracé 120" d="M1798.695,1727.171h-2.4v9h6.111v-1.779h-3.713Z" transform="translate(0 -121.083)" fill="#0a1469"/>
    <path id="Tracé_121" data-name="Tracé 121" d="M1826.246,1730.665h1.766l1.263-3.494h-2.166Z" transform="translate(-23.13 -121.083)" fill="#0a1469"/>
    <path id="Tracé_122" data-name="Tracé 122" d="M1854.382,1742.327h.026c0,.348.039.7.052,1.057h2.127a8.229,8.229,0,0,1-.129-1.586v-2.5c0-2.05-1.483-2.785-3.2-2.785a6.939,6.939,0,0,0-2.682.477l.039,1.573a4.366,4.366,0,0,1,2.14-.5c.838,0,1.521.245,1.534,1.16a6.821,6.821,0,0,0-1.083-.09c-1.238,0-3.468.245-3.468,2.295,0,1.457,1.186,2.115,2.514,2.115A2.3,2.3,0,0,0,1854.382,1742.327Zm-2.476-1.07c0-.644.619-.889,1.405-.889.348,0,.683.026.98.039a1.512,1.512,0,0,1-1.431,1.586C1852.319,1741.991,1851.907,1741.721,1851.907,1741.256Z" transform="translate(-41.274 -128.297)" fill="#0a1469"/>
    <path id="Tracé_123" data-name="Tracé 123" d="M1891.182,1736.667v9.424h2.321v-3.648h.026a2.33,2.33,0,0,0,2.127,1.1c2,0,3.068-1.65,3.068-3.636,0-1.624-1.018-3.391-2.875-3.391a2.646,2.646,0,0,0-2.5,1.367h-.026v-1.212Zm3.739,1.625a1.487,1.487,0,0,1,1.406,1.663c0,1.07-.529,1.805-1.406,1.805a1.574,1.574,0,0,1-1.418-1.715C1893.5,1739.039,1894.07,1738.291,1894.921,1738.291Z" transform="translate(-73.279 -128.297)" fill="#0a1469"/>
    <path id="Tracé_124" data-name="Tracé 124" d="M1934.661,1736.667v9.424h2.321v-3.648h.026a2.33,2.33,0,0,0,2.127,1.1c2,0,3.068-1.65,3.068-3.636,0-1.624-1.019-3.391-2.875-3.391a2.646,2.646,0,0,0-2.5,1.367h-.026v-1.212Zm3.739,1.625a1.486,1.486,0,0,1,1.405,1.663c0,1.07-.528,1.805-1.405,1.805a1.574,1.574,0,0,1-1.418-1.715C1936.982,1739.039,1937.549,1738.291,1938.4,1738.291Z" transform="translate(-106.857 -128.297)" fill="#0a1469"/>
    <rect id="Rectangle_162" data-name="Rectangle 162" width="2.321" height="9.669" transform="translate(1838.027 1605.417)" fill="#0a1469"/>
    <rect id="Rectangle_163" data-name="Rectangle 163" width="2.321" height="1.702" transform="translate(1843.622 1605.572)" fill="#0a1469"/>
    <rect id="Rectangle_164" data-name="Rectangle 164" width="2.321" height="6.717" transform="translate(1843.622 1608.37)" fill="#0a1469"/>
    <path id="Tracé_125" data-name="Tracé 125" d="M2056.621,1733.9v-9.67h-2.334v3.816h-.025a2.674,2.674,0,0,0-2.308-1.018c-1.857,0-2.875,1.741-2.875,3.391,0,1.985,1.07,3.636,3.068,3.636a2.484,2.484,0,0,0,2.308-1.354h.026v1.2Zm-3.739-1.625c-.877,0-1.405-.735-1.405-1.805a1.487,1.487,0,0,1,1.405-1.663c.851,0,1.418.735,1.418,1.753A1.574,1.574,0,0,1,2052.882,1732.271Z" transform="translate(-195.221 -118.809)" fill="#0a1469"/>
    <path id="Tracé_126" data-name="Tracé 126" d="M2099.546,1740.277c0-2-.9-3.765-3.39-3.765a3.333,3.333,0,0,0-3.6,3.507c0,2.217,1.689,3.519,3.906,3.519a6.725,6.725,0,0,0,2.463-.426v-1.637a4.346,4.346,0,0,1-2.05.516c-1.135,0-1.844-.361-1.973-1.289h4.641Zm-4.667-.89c.052-.774.451-1.405,1.289-1.405a1.23,1.23,0,0,1,1.289,1.405Z" transform="translate(-228.799 -128.297)" fill="#0a1469"/>
    <path id="Tracé_127" data-name="Tracé 127" d="M2135.226,1741.991a5.75,5.75,0,0,1-2.179-.464l-.129,1.689a7.59,7.59,0,0,0,2.437.322c1.521,0,3.133-.451,3.133-2.243,0-2.553-3.456-1.728-3.456-2.772,0-.374.567-.464,1.07-.464a3.782,3.782,0,0,1,1.8.451l.181-1.612a6.39,6.39,0,0,0-2.359-.387c-1.341,0-2.863.632-2.863,2.179,0,2.424,3.3,1.624,3.3,2.759C2136.167,1741.914,2135.7,1741.991,2135.226,1741.991Z" transform="translate(-259.93 -128.297)" fill="#0a1469"/>
    <rect id="Rectangle_165" data-name="Rectangle 165" width="2.321" height="6.717" transform="translate(1886.487 1608.37)" fill="#0a1469"/>
    <rect id="Rectangle_166" data-name="Rectangle 166" width="2.321" height="1.702" transform="translate(1886.487 1605.572)" fill="#0a1469"/>
    <path id="Tracé_128" data-name="Tracé 128" d="M2220.34,1736.512a2.547,2.547,0,0,0-2.45,1.392h-.026v-1.238h-2.115v6.717h2.321v-2.837c0-1.444.49-2.1,1.444-2.1.632,0,1.07.425,1.07,1.689v3.249h2.321v-4.19A2.434,2.434,0,0,0,2220.34,1736.512Z" transform="translate(-323.939 -128.297)" fill="#0a1469"/>
    <path id="Tracé_129" data-name="Tracé 129" d="M2261.251,1725.172a2.123,2.123,0,0,1,.735.1l.142-1.6a6.338,6.338,0,0,0-1.186-.129c-1.857,0-2.8.7-2.8,2.694v.413h-1.405v1.625h1.367v5.092h2.32v-5.092h1.65v-1.625h-1.65v-.413C2260.426,1725.584,2260.658,1725.172,2261.251,1725.172Z" transform="translate(-355.595 -118.285)" fill="#0a1469"/>
    <rect id="Rectangle_167" data-name="Rectangle 167" width="2.321" height="6.717" transform="translate(1907.694 1608.37)" fill="#0a1469"/>
    <rect id="Rectangle_168" data-name="Rectangle 168" width="2.321" height="1.702" transform="translate(1907.694 1605.572)" fill="#0a1469"/>
    <path id="Tracé_130" data-name="Tracé 130" d="M2311.021,1737.9H2311v-1.238h-2.115v6.717h2.321v-2.837c0-1.315.605-2.1,1.689-2.1a2.669,2.669,0,0,1,.786.078l.116-1.934a4.919,4.919,0,0,0-.786-.077A2.073,2.073,0,0,0,2311.021,1737.9Z" transform="translate(-395.863 -128.297)" fill="#0a1469"/>
    <path id="Tracé_131" data-name="Tracé 131" d="M2348.754,1736.512a2.66,2.66,0,0,0-2.385,1.289,2.114,2.114,0,0,0-2.1-1.289,2.547,2.547,0,0,0-2.45,1.392h-.026v-1.238h-2.115v6.717H2342v-2.837c0-1.444.49-2.1,1.315-2.1.657,0,.928.567.928,1.328v3.61h2.321v-2.837c0-1.444.49-2.1,1.315-2.1.657,0,.928.567.928,1.328v3.61h2.321v-3.958C2351.126,1737.608,2350.688,1736.512,2348.754,1736.512Z" transform="translate(-419.647 -128.297)" fill="#0a1469"/>
    <rect id="Rectangle_169" data-name="Rectangle 169" width="2.32" height="6.717" transform="translate(1934.482 1608.37)" fill="#0a1469"/>
    <rect id="Rectangle_170" data-name="Rectangle 170" width="2.32" height="1.702" transform="translate(1934.482 1605.572)" fill="#0a1469"/>
    <path id="Tracé_132" data-name="Tracé 132" d="M2428.706,1736.512a3.333,3.333,0,0,0-3.6,3.507c0,2.217,1.689,3.519,3.906,3.519a6.724,6.724,0,0,0,2.463-.426v-1.637a4.347,4.347,0,0,1-2.05.516c-1.135,0-1.844-.361-1.972-1.289h4.641v-.425C2432.1,1738.279,2431.194,1736.512,2428.706,1736.512Zm-1.276,2.875c.052-.774.451-1.405,1.289-1.405a1.23,1.23,0,0,1,1.289,1.405Z" transform="translate(-485.625 -128.297)" fill="#0a1469"/>
    <path id="Tracé_133" data-name="Tracé 133" d="M2468.917,1737.9h-.025v-1.238h-2.115v6.717h2.321v-2.837c0-1.315.606-2.1,1.689-2.1a2.671,2.671,0,0,1,.787.078l.116-1.934a4.922,4.922,0,0,0-.787-.077A2.073,2.073,0,0,0,2468.917,1737.9Z" transform="translate(-517.805 -128.297)" fill="#0a1469"/>
    <path id="Tracé_134" data-name="Tracé 134" d="M2498.38,1738.523c0-.374.567-.464,1.07-.464a3.786,3.786,0,0,1,1.805.451l.18-1.612a6.389,6.389,0,0,0-2.359-.387c-1.341,0-2.862.632-2.862,2.179,0,2.424,3.3,1.624,3.3,2.759,0,.464-.464.542-.941.542a5.748,5.748,0,0,1-2.178-.464l-.129,1.689a7.59,7.59,0,0,0,2.437.322c1.521,0,3.133-.451,3.133-2.243C2501.835,1738.742,2498.38,1739.568,2498.38,1738.523Z" transform="translate(-540.539 -128.297)" fill="#0a1469"/>
    <path id="Tracé_135" data-name="Tracé 135" d="M1854.628,1788.152c-.021-.011-.041.016-.022.03,16.706,12.638,55.76,27.685,88.854-1.177C1932.048,1795.164,1891.087,1807.5,1854.628,1788.152Z" transform="translate(-45.026 -167.293)" fill="#47af2e"/>
  </g>
</svg>
