<svg xmlns="http://www.w3.org/2000/svg" viewBox="0 0 210 40" width="210" height="40">
	<style>
		tspan { white-space:pre }
		.shp0 { fill: #e42313 } 
	</style>
	<g id="Calque 1">
		<path id="&lt;Path&gt;" class="shp0" d="M174.38 11.41L165.9 11.41L165.9 38.51L174.38 38.51L174.38 11.41Z" />
		<path id="&lt;Path&gt;" class="shp0" d="M53.58 38.57C53.97 38.58 54.36 38.57 54.76 38.57L54.76 32.75C54.47 32.75 54.23 32.75 53.99 32.75C52.65 32.74 51.31 32.78 49.97 32.72C48.3 32.65 47.51 31.79 47.51 30.13C47.51 26.06 47.51 21.99 47.51 17.93C47.51 17.71 47.53 17.49 47.54 17.21C48.56 17.21 49.54 17.23 50.52 17.2C51.78 17.17 52.98 16.91 53.75 15.8C54.67 14.48 54.78 12.97 54.75 11.35L47.48 11.35L47.48 7.3L39.16 7.3L39.16 8.05C39.16 15.52 39.15 22.98 39.17 30.45C39.18 31.26 39.25 32.1 39.44 32.89C40.21 35.97 42.44 37.49 45.37 38.17C48.08 38.81 50.84 38.54 53.58 38.57Z" />
		<path id="&lt;Path&gt;" class="shp0" d="M67.36 37.79C67.34 25.89 67.34 14 67.34 2.1L67.34 1.37L58.8 1.37L58.8 38.56C59.04 38.56 59.25 38.56 59.47 38.56C61.84 38.56 64.21 38.54 66.58 38.57C67.21 38.58 67.36 38.39 67.36 37.79Z" />
		<path id="&lt;Path&gt;" class="shp0" d="M141.74 38.04C141.72 32.2 141.81 26.35 141.65 20.51C141.55 16.86 139.75 14.1 136.31 12.56C134.28 11.66 132.14 11.29 129.94 11.24C126.81 11.16 123.69 11.11 120.59 11.65C119.53 11.84 118.5 12.14 117.43 12.39C117.41 12.06 117.39 11.76 117.37 11.38C115.34 11.4 113.33 11.36 111.41 12.06C109.89 12.61 109.38 13.42 109.38 15.04C109.38 22.6 109.38 30.16 109.38 37.72L109.38 38.52L117.95 38.52L117.95 37.71C117.95 32.06 118.02 26.41 117.9 20.77C117.87 19.34 118.42 18.75 119.6 18.26C122.49 17.06 125.51 16.88 128.55 17.17C131.61 17.47 133.26 18.74 133.17 22.5C133.06 27.61 133.15 32.72 133.13 37.84C133.13 38.44 133.31 38.58 133.89 38.57C135.92 38.54 137.95 38.56 139.99 38.56L141.67 38.56C141.7 38.34 141.74 38.19 141.74 38.04Z" />
		<path id="&lt;Path&gt;" class="shp0" d="M160.7 16.01C161.8 14.67 161.82 13.04 161.9 11.38L154.6 11.38L154.6 7.32L146.3 7.32C146.29 7.48 146.27 7.59 146.27 7.7C146.27 15.5 146.26 23.3 146.28 31.11C146.28 32.29 146.57 33.43 147.15 34.49C148.45 36.87 150.64 37.99 153.19 38.28C155.6 38.55 158.04 38.49 160.47 38.58C160.95 38.59 161.43 38.58 161.89 38.58L161.89 32.75C161.6 32.75 161.36 32.75 161.12 32.75C159.78 32.74 158.43 32.77 157.1 32.72C155.41 32.65 154.62 31.8 154.62 30.14C154.62 26.08 154.62 22.01 154.62 17.94L154.62 17.21C155.67 17.21 156.65 17.23 157.62 17.2C158.79 17.17 159.91 16.96 160.7 16.01Z" />
		<path id="&lt;Path&gt;" class="shp0" d="M174.31 3.17C172.48 0.81 167.91 0.77 166.05 3.1C165.2 4.16 165.18 5.53 166.04 6.59C167.1 7.88 168.54 8.3 170.14 8.34C171.51 8.35 172.81 7.92 173.74 7.14C175.02 6.09 175.26 4.41 174.31 3.17Z" />
		<path id="&lt;Path&gt;" class="shp0" d="M188.84 30.08C187.17 28.36 186.78 26.21 186.9 23.92C186.99 22.1 187.64 20.49 189.13 19.42C190.11 18.72 191.24 18.14 192.39 17.8C195.95 16.72 199.62 16.87 203.28 17.17C204.4 17.26 205.52 17.41 206.69 17.54L206.69 11.77C206.08 11.69 205.49 11.58 204.9 11.52C201.31 11.18 197.72 11.07 194.13 11.37C191.36 11.59 188.65 12.07 186.07 13.11C183.05 14.34 180.62 16.22 179.28 19.28C178.33 21.46 178.19 23.75 178.36 26.07C178.51 28.11 179.05 30.04 180.13 31.8C181.84 34.57 184.39 36.26 187.42 37.24C192.99 39.06 198.69 39.19 204.42 38.25C207.87 37.68 209.42 35.36 208.83 32.1C207.11 32.33 205.39 32.58 203.66 32.76C200.46 33.1 197.25 33.18 194.06 32.58C192.1 32.21 190.26 31.55 188.84 30.08Z" />
		<path id="&lt;Compound Path&gt;" fill-rule="evenodd" class="shp0" d="M104.86 35.07C104.86 36.35 104.29 37.18 103.16 37.76C102 38.36 98.14 38.68 96.89 38.47C96.86 38.17 96.84 37.87 96.81 37.59C95.54 37.91 94.31 38.33 93.04 38.49C87.51 39.2 82.15 38.59 77.24 35.79C73.34 33.56 71.43 30.05 71.22 25.59C71.07 22.44 71.57 19.47 73.6 16.94C75.38 14.69 77.81 13.42 80.5 12.57C83.65 11.59 86.91 11.26 90.2 11.19C93.39 11.12 96.53 11.41 99.59 12.33C100.55 12.62 101.5 13.07 102.36 13.61C104.03 14.65 104.86 16.2 104.85 18.19C104.84 23.81 104.83 29.44 104.86 35.07ZM96.26 30.78C96.24 28.78 96.25 26.78 96.25 24.78C96.25 22.78 96.23 20.78 96.26 18.78C96.27 18.17 96.04 17.81 95.49 17.61C95.26 17.52 95.04 17.42 94.8 17.37C91.9 16.77 88.99 16.83 86.1 17.46C84.35 17.84 82.74 18.53 81.49 19.86C79.95 21.49 79.63 23.47 79.83 25.61C80.09 28.38 81.37 30.51 83.96 31.6C85.4 32.2 86.97 32.57 88.52 32.78C90.99 33.12 93.42 32.85 95.69 31.71C96.1 31.5 96.27 31.26 96.26 30.78Z" />
		<path id="&lt;Compound Path&gt;" fill-rule="evenodd" class="shp0" d="M34.64 35.12C34.65 36.42 34.06 37.27 32.9 37.76C31.59 38.33 30.19 38.45 28.78 38.49C28.09 38.51 27.4 38.5 26.64 38.5C26.61 38.17 26.59 37.86 26.57 37.6C25.31 37.91 24.07 38.35 22.81 38.5C16.83 39.2 11.06 38.55 5.96 35.08C3.03 33.09 1.47 30.18 1.09 26.64C0.87 24.54 0.92 22.47 1.54 20.44C2.59 17.02 4.97 14.81 8.17 13.37C10.78 12.2 13.55 11.61 16.38 11.41C18.57 11.24 20.79 11.18 22.99 11.27C25.67 11.38 28.33 11.75 30.81 12.85C32.73 13.71 34.21 14.98 34.57 17.19C34.62 17.47 34.63 17.76 34.63 18.05C34.63 23.74 34.62 29.43 34.64 35.12ZM26.08 30.77C26.05 28.79 26.07 26.81 26.07 24.83L26.07 19.24C26.07 17.96 25.86 17.63 24.58 17.38C21.18 16.7 17.78 16.75 14.49 17.88C11.02 19.07 9.48 21.38 9.55 25.01C9.62 28.32 11.35 30.77 14.45 31.93C16.42 32.67 18.46 32.94 20.56 32.88C22.29 32.83 23.95 32.47 25.52 31.69C25.93 31.48 26.08 31.24 26.08 30.77Z" />
	</g>
</svg>