<svg id="bf42b20b-d27a-442b-ac92-e61487fa75c5" data-name="Calque 1" xmlns="http://www.w3.org/2000/svg" width="160" height="52.34" viewBox="0 0 160 52.34">
  <defs>
    <style>
      .a4dcac12-f771-49b8-857d-e9082f152078 {
        fill: #935b9e;
      }

      .bf5522ee-22f6-4b0b-9072-552dba213bb3 {
        fill: #8fbe54;
      }

      .b9ef2fd8-cf62-410e-b52f-f61612e1eb36 {
        fill: #36b6d4;
      }

      .a8b1f034-2fc9-4a81-9193-0888d803e054 {
        fill: #facf53;
      }

      .b0430f21-6e2f-4a7d-ba47-8f5735ff1f11 {
        fill: #d94759;
      }

      .ac51777b-4c17-4639-b6a4-7fb427c413b4 {
        fill: #4b4b99;
      }

      .f85d22f9-acbe-4f44-8e59-3ff5d752e3a5 {
        fill: #e4803e;
      }

      .bf3a2f45-7f2b-409f-9e17-bad5ca918874 {
        fill: #1e1e1c;
      }
    </style>
  </defs>
  <g>
    <g>
      <g>
        <path d="M74.19,33H59.44c.4,3,2.82,5.54,6.88,5.54A10.62,10.62,0,0,0,71,37.33a2.68,2.68,0,0,1,3.91,2.22c0,2.82-6.09,4-9.26,4-7.28,0-12.77-4.9-12.77-12.57a12.16,12.16,0,0,1,11.8-12.52h.57a11.42,11.42,0,0,1,11.19,8.07,12.41,12.41,0,0,1,.69,3.62A2.91,2.91,0,0,1,74.19,33Zm-9-9.55a5.75,5.75,0,0,0-5.9,5.3H71.13a5.54,5.54,0,0,0-5.77-5.31Z" transform="translate(0)"/>
        <path d="M95.26,43.51a9.15,9.15,0,0,1-7.38-3.66v9.41a3.14,3.14,0,0,1-6.28,0V21.78a3.12,3.12,0,0,1,3.16-3.07h0a3.09,3.09,0,0,1,3.07,3.07V22a9.23,9.23,0,0,1,7.38-3.61c6.14,0,10.59,4.55,10.59,12.52S101.4,43.51,95.26,43.51Zm-2-19.5a7,7,0,0,0-5.4,2.73V35.2a7.22,7.22,0,0,0,5.4,2.73c3.61,0,6-2.83,6-7S96.89,24,93.28,24Z" transform="translate(0)"/>
        <path d="M119.25,43.51c-3.11,0-8.11-1-9.59-3.16a2.19,2.19,0,0,1-.45-1.34,2.67,2.67,0,0,1,2.62-2.62,2.42,2.42,0,0,1,1.29.34,13.85,13.85,0,0,0,6.44,1.93c2.72,0,4-1.09,4-2.57,0-4-14.21-.75-14.21-10.15,0-4,3.51-7.52,9.8-7.52,3.12,0,7.38,1,8.71,2.92a2.1,2.1,0,0,1,.4,1.23,2.48,2.48,0,0,1-3.66,2.08,11,11,0,0,0-5.4-1.43c-2.28,0-3.76,1-3.76,2.37,0,3.57,14.16.6,14.16,10.25C129.6,40.2,125.89,43.51,119.25,43.51Z" transform="translate(0)"/>
        <path d="M141,12.67A3.77,3.77,0,1,1,137.18,9h0A3.73,3.73,0,0,1,141,12.64Zm-3.77,30.55a3.1,3.1,0,0,1-3.11-3.1V21.78a3.12,3.12,0,0,1,3.16-3.07h.06a3.07,3.07,0,0,1,3.06,3.07V40.1a3.12,3.12,0,0,1-3.11,3.12Z" transform="translate(0)"/>
      </g>
      <g>
        <rect class="a4dcac12-f771-49b8-857d-e9082f152078" x="28" y="36.61" width="7" height="7"/>
        <rect class="bf5522ee-22f6-4b0b-9072-552dba213bb3" x="7" y="29.61" width="7" height="7"/>
        <path class="b9ef2fd8-cf62-410e-b52f-f61612e1eb36" d="M28,22.61v7H21v7H14v7H28v-7h7v-14Z" transform="translate(0)"/>
        <path class="a8b1f034-2fc9-4a81-9193-0888d803e054" d="M21,22.61H14v14h7v-7h7v-7Z" transform="translate(0)"/>
        <path class="b0430f21-6e2f-4a7d-ba47-8f5735ff1f11" d="M28.75,0V7h7v7h7V0Z" transform="translate(0)"/>
        <path class="ac51777b-4c17-4639-b6a4-7fb427c413b4" d="M14,15.61v-7H0v35H14v-7H7v-7h7v-7H7v-7Z" transform="translate(0)"/>
        <path class="f85d22f9-acbe-4f44-8e59-3ff5d752e3a5" d="M21,15.61v-7H14v7H7v7H28v-7Z" transform="translate(0)"/>
      </g>
    </g>
  </g>
  <path class="bf3a2f45-7f2b-409f-9e17-bad5ca918874" d="M143.66,16a7,7,0,0,1,7-7v1.5a5.46,5.46,0,0,0,0,10.92V23a7,7,0,0,1-7-7" transform="translate(0)"/>
  <path class="bf3a2f45-7f2b-409f-9e17-bad5ca918874" d="M152.88,19a3.54,3.54,0,0,1-2.28.87A2.35,2.35,0,0,1,148,17.59v0a2.26,2.26,0,0,1,1.52-2.14,2.58,2.58,0,0,1-.55-1.56v0a2.14,2.14,0,0,1,2.36-2,2,2,0,0,1,2.19,2v0a2.16,2.16,0,0,1-1.63,2l1,1c.26-.4.51-.85.76-1.33l1.25.69a15.34,15.34,0,0,1-1,1.65L155,19l-1.26.88Zm-1-1-1.49-1.51a1.15,1.15,0,0,0-.72,1v0c0,.55.45.91,1.09.91a1.8,1.8,0,0,0,1.12-.44m.09-4.11v0a.68.68,0,0,0-.73-.72.73.73,0,0,0-.76.79v0a1.37,1.37,0,0,0,.46,1c.67-.26,1-.55,1-1" transform="translate(0)"/>
  <path class="bf3a2f45-7f2b-409f-9e17-bad5ca918874" d="M159,16a7,7,0,0,1-7,7v-1.5a5.46,5.46,0,1,0,0-10.92V9a7,7,0,0,1,7,7" transform="translate(0)"/>
</svg>
