<svg width="302" height="84" viewBox="0 0 302 84" fill="none" xmlns="http://www.w3.org/2000/svg">
<path d="M91.7313 48.2327L100.732 18.6157H109.516L96.0457 56.9762C95.7353 57.7971 95.3318 58.69 94.8352 59.6546C94.3592 60.6193 93.7178 61.5326 92.9108 62.3946C92.1038 63.2772 91.0899 63.9955 89.8691 64.5497C88.6689 65.1039 87.2101 65.381 85.4927 65.381C84.7478 65.381 84.0856 65.3297 83.5062 65.227C82.9269 65.1244 82.3164 64.991 81.675 64.8268V58.731C81.8819 58.7515 82.1199 58.7618 82.3889 58.7618C82.6786 58.7823 82.9269 58.7926 83.1338 58.7926C84.3339 58.7926 85.3271 58.6489 86.1134 58.3616C86.8997 58.0947 87.5309 57.6535 88.0068 57.0377C88.5034 56.4425 88.9172 55.6626 89.2483 54.6979L91.7313 48.2327ZM87.2929 18.6157L94.8972 43.1529L96.2319 51.7424L90.5829 52.7584L78.447 18.6157H87.2929Z" fill="black"/>
<path d="M111.534 35.6101V34.9636C111.534 32.5211 111.885 30.2737 112.589 28.2212C113.293 26.1483 114.317 24.3524 115.662 22.8335C117.007 21.3147 118.652 20.1346 120.597 19.293C122.542 18.431 124.756 18 127.239 18C129.763 18 131.998 18.431 133.943 19.293C135.909 20.1346 137.564 21.3147 138.909 22.8335C140.254 24.3524 141.279 26.1483 141.982 28.2212C142.686 30.2737 143.037 32.5211 143.037 34.9636V35.6101C143.037 38.032 142.686 40.2794 141.982 42.3524C141.279 44.4049 140.254 46.2008 138.909 47.7401C137.564 49.2589 135.919 50.4391 133.974 51.2806C132.029 52.1221 129.805 52.5428 127.301 52.5428C124.818 52.5428 122.594 52.1221 120.628 51.2806C118.662 50.4391 117.007 49.2589 115.662 47.7401C114.317 46.2008 113.293 44.4049 112.589 42.3524C111.885 40.2794 111.534 38.032 111.534 35.6101ZM119.728 34.9636V35.6101C119.728 37.0673 119.873 38.4322 120.162 39.7047C120.452 40.9773 120.897 42.0958 121.497 43.0605C122.097 44.0252 122.873 44.7846 123.825 45.3387C124.797 45.8724 125.956 46.1392 127.301 46.1392C128.625 46.1392 129.763 45.8724 130.715 45.3387C131.667 44.7846 132.443 44.0252 133.043 43.0605C133.664 42.0958 134.119 40.9773 134.409 39.7047C134.698 38.4322 134.843 37.0673 134.843 35.6101V34.9636C134.843 33.5268 134.698 32.1825 134.409 30.9305C134.119 29.658 133.664 28.5394 133.043 27.5747C132.443 26.5895 131.657 25.8199 130.684 25.2657C129.732 24.691 128.584 24.4037 127.239 24.4037C125.915 24.4037 124.777 24.691 123.825 25.2657C122.873 25.8199 122.097 26.5895 121.497 27.5747C120.897 28.5394 120.452 29.658 120.162 30.9305C119.873 32.1825 119.728 33.5268 119.728 34.9636Z" fill="black"/>
<path d="M168.985 44.0149V18.6157H177.241V51.9271H169.482L168.985 44.0149ZM170.041 37.1186L172.586 37.0571C172.586 39.2942 172.337 41.357 171.841 43.2452C171.344 45.1335 170.568 46.7754 169.513 48.1711C168.478 49.5463 167.164 50.6238 165.571 51.4037C163.978 52.1631 162.095 52.5428 159.922 52.5428C158.267 52.5428 156.756 52.3171 155.391 51.8655C154.025 51.3935 152.845 50.6648 151.852 49.6797C150.88 48.674 150.124 47.3912 149.586 45.8313C149.048 44.2509 148.779 42.3524 148.779 40.1357V18.6157H156.974V40.1973C156.974 41.3056 157.098 42.2292 157.346 42.9681C157.615 43.707 157.977 44.3125 158.432 44.7846C158.908 45.2361 159.457 45.5645 160.077 45.7697C160.719 45.9545 161.402 46.0468 162.126 46.0468C164.112 46.0468 165.675 45.6569 166.813 44.8769C167.971 44.0765 168.799 43.0092 169.296 41.6751C169.792 40.3205 170.041 38.8016 170.041 37.1186Z" fill="black"/>
<path d="M215.946 18.6157V51.9271H207.721L192.419 30.9305V51.9271H184.194V18.6154H192.419L206.691 39.6432V18.6154L215.946 18.6157Z" fill="black"/>
<path d="M243.042 44.0149V18.6157H251.298V51.9271H243.539L243.042 44.0149ZM244.098 37.1186L246.643 37.0571C246.643 39.2942 246.394 41.357 245.898 43.2452C245.401 45.1335 244.625 46.7754 243.57 48.1711C242.535 49.5463 241.221 50.6238 239.628 51.4037C238.035 52.1631 236.152 52.5428 233.979 52.5428C232.324 52.5428 230.813 52.3171 229.448 51.8655C228.082 51.3935 226.902 50.6648 225.909 49.6797C224.937 48.674 224.181 47.3912 223.643 45.8313C223.105 44.2509 222.836 42.3524 222.836 40.1357V18.6157H231.031V40.1973C231.031 41.3056 231.155 42.2292 231.403 42.9681C231.672 43.707 232.034 44.3125 232.489 44.7846C232.965 45.2361 233.514 45.5645 234.134 45.7697C234.776 45.9545 235.459 46.0468 236.183 46.0468C238.169 46.0468 239.732 45.6569 240.87 44.8769C242.028 44.0765 242.856 43.0092 243.353 41.6751C243.849 40.3205 244.098 38.8016 244.098 37.1186Z" fill="black"/>
<path d="M266.755 25.0194V64.7344H258.53V18.6157H266.135L266.755 25.0194ZM288.327 34.9328V35.5793C288.327 38.0012 288.037 40.2486 287.458 42.3216C286.899 44.3741 286.072 46.17 284.975 47.7093C283.878 49.2281 282.512 50.4186 280.878 51.2806C279.264 52.1221 277.402 52.5428 275.291 52.5428C273.222 52.5428 271.422 52.1529 269.89 51.3729C268.359 50.5725 267.066 49.4436 266.011 47.9864C264.955 46.5291 264.107 44.8359 263.465 42.9066C262.845 40.9567 262.379 38.8324 262.069 36.5337V34.471C262.379 32.0285 262.845 29.8119 263.465 27.821C264.107 25.8096 264.955 24.0753 266.011 22.618C267.066 21.1403 268.349 20.0011 269.859 19.2007C271.39 18.4002 273.18 18 275.229 18C277.36 18 279.233 18.4002 280.847 19.2007C282.481 20.0011 283.857 21.1505 284.975 22.6488C286.092 24.1471 286.93 25.9327 287.489 28.0057C288.048 30.0787 288.327 32.3877 288.327 34.9328ZM280.102 35.5793V34.9328C280.102 33.455 279.967 32.0901 279.698 30.8381C279.429 29.5656 279.016 28.4573 278.457 27.5131C277.898 26.5485 277.174 25.7993 276.284 25.2657C275.394 24.7321 274.318 24.4652 273.056 24.4652C271.794 24.4652 270.708 24.6705 269.797 25.081C268.887 25.4915 268.142 26.0764 267.562 26.8358C266.983 27.5952 266.528 28.4983 266.197 29.5451C265.886 30.5713 265.679 31.7104 265.576 32.9624V38.073C265.762 39.5918 266.124 40.9567 266.662 42.1677C267.2 43.3786 267.987 44.3433 269.021 45.0616C270.077 45.78 271.442 46.1392 273.118 46.1392C274.38 46.1392 275.456 45.8621 276.346 45.3079C277.236 44.7538 277.96 43.9944 278.519 43.0297C279.078 42.0445 279.481 40.9157 279.729 39.6432C279.978 38.3706 280.102 37.016 280.102 35.5793Z" fill="black"/>
<ellipse cx="296.937" cy="47.3818" rx="4.74979" ry="4.63909" fill="black"/>
<path fill-rule="evenodd" clip-rule="evenodd" d="M24.9212 44.5176C35.3481 44.5176 43.8009 35.9265 43.8009 25.329C43.8009 14.7314 35.3481 6.14035 24.9212 6.14035C14.4942 6.14035 6.0415 14.7314 6.0415 25.329C6.0415 35.9265 14.4942 44.5176 24.9212 44.5176ZM24.9212 50.6579C38.6848 50.6579 49.8424 39.3177 49.8424 25.329C49.8424 11.3402 38.6848 0 24.9212 0C11.1576 0 0 11.3402 0 25.329C0 39.3177 11.1576 50.6579 24.9212 50.6579Z" fill="black"/>
<path fill-rule="evenodd" clip-rule="evenodd" d="M23.54 46.7845C24.7196 45.5856 26.6323 45.5856 27.812 46.7845L50.09 69.4271C51.2319 70.5877 51.2737 72.456 50.1848 73.6682L42.2553 82.4949C41.7038 83.1088 40.9309 83.4692 40.1132 83.4936C39.2956 83.5181 38.5032 83.2044 37.9172 82.6245L25.7644 70.5979L14.6547 82.5346C14.1018 83.1287 13.3386 83.474 12.5343 83.494C11.7299 83.5141 10.951 83.2072 10.3701 82.6414L1.30787 73.8147C0.721408 73.2434 0.386008 72.4562 0.377368 71.6307C0.368728 70.8052 0.687577 70.0109 1.26195 69.4271L23.54 46.7845ZM7.71586 71.5514L12.3551 76.07L23.4815 64.1154C24.0372 63.5183 24.8053 63.1726 25.6139 63.1557C26.4224 63.1388 27.2039 63.4521 27.7833 64.0255L39.897 76.0134L43.7769 71.6945L25.676 53.2974L7.71586 71.5514Z" fill="black"/>
</svg>
